<svg width="75px" height="75px" viewBox="0 0 75 75" version="1.1">
<g id="surface1">
<path style=" stroke:none;fill-rule:nonzero;fill:rgb(0%,0%,0%);fill-opacity:1;" d="M 1.816406 21.683594 L 35.941406 37.160156 C 36.9375 37.613281 38.0625 37.613281 39.058594 37.160156 L 73.179688 21.683594 C 75.605469 20.582031 75.605469 16.917969 73.179688 15.820312 L 39.058594 0.339844 C 38.070312 -0.113281 36.933594 -0.113281 35.941406 0.339844 L 1.816406 15.816406 C -0.605469 16.917969 -0.605469 20.582031 1.816406 21.683594 Z M 73.183594 34.613281 L 64.671875 30.757812 L 40.996094 41.492188 C 39.886719 41.992188 38.710938 42.246094 37.5 42.246094 C 36.289062 42.246094 35.113281 41.992188 34.003906 41.492188 L 10.328125 30.757812 L 1.816406 34.613281 C -0.605469 35.710938 -0.605469 39.375 1.816406 40.472656 L 35.941406 55.941406 C 36.9375 56.390625 38.0625 56.390625 39.058594 55.941406 L 73.183594 40.472656 C 75.605469 39.375 75.605469 35.710938 73.183594 34.613281 Z M 73.183594 53.335938 L 64.703125 49.492188 L 40.996094 60.242188 C 39.886719 60.742188 38.710938 60.996094 37.5 60.996094 C 36.289062 60.996094 35.113281 60.742188 34.003906 60.242188 L 10.296875 49.492188 L 1.816406 53.335938 C -0.605469 54.433594 -0.605469 58.09375 1.816406 59.195312 L 35.941406 74.660156 C 36.9375 75.113281 38.0625 75.113281 39.058594 74.660156 L 73.183594 59.195312 C 75.605469 58.09375 75.605469 54.433594 73.183594 53.335938 Z M 73.183594 53.335938 "/>
</g>
</svg>
