<svg width="80px" height="80px" viewBox="0 0 80 80" version="1.1">
<g id="surface1">
<path style=" stroke:none;fill-rule:nonzero;fill:rgb(0%,0%,0%);fill-opacity:1;" d="M 78.667969 13.332031 L 46.667969 13.332031 C 45.929688 13.332031 45.332031 13.929688 45.332031 14.667969 L 45.332031 26.667969 C 45.332031 27.402344 45.929688 28 46.667969 28 C 46.808594 28 46.953125 27.976562 47.089844 27.929688 L 48.765625 27.371094 C 50.582031 26.777344 52.542969 27.769531 53.136719 29.589844 C 53.734375 31.40625 52.742188 33.367188 50.921875 33.960938 C 50.21875 34.191406 49.464844 34.191406 48.765625 33.960938 L 47.085938 33.402344 C 46.390625 33.171875 45.632812 33.546875 45.402344 34.246094 C 45.355469 34.382812 45.332031 34.523438 45.332031 34.667969 L 45.332031 45.332031 L 34.667969 45.332031 C 33.929688 45.332031 33.332031 45.929688 33.335938 46.667969 C 33.335938 46.808594 33.355469 46.953125 33.402344 47.089844 L 33.960938 48.765625 C 34.558594 50.582031 33.566406 52.542969 31.746094 53.136719 C 29.925781 53.734375 27.96875 52.742188 27.371094 50.921875 C 27.140625 50.21875 27.140625 49.464844 27.371094 48.765625 L 27.929688 47.085938 C 28.164062 46.390625 27.785156 45.632812 27.085938 45.402344 C 26.953125 45.355469 26.808594 45.332031 26.667969 45.332031 L 14.667969 45.332031 C 13.929688 45.332031 13.332031 45.929688 13.332031 46.667969 L 13.332031 78.667969 C 13.332031 79.402344 13.929688 80 14.667969 80 L 78.667969 80 C 79.402344 80 80 79.402344 80 78.667969 L 80 14.667969 C 80 13.929688 79.402344 13.332031 78.667969 13.332031 Z M 45.402344 66.246094 C 45.355469 66.382812 45.332031 66.523438 45.332031 66.667969 L 45.332031 77.332031 L 16 77.332031 L 16 48 L 24.816406 48 C 23.796875 51.230469 25.589844 54.675781 28.820312 55.695312 C 32.050781 56.710938 35.496094 54.917969 36.515625 51.6875 C 36.894531 50.488281 36.894531 49.199219 36.515625 48 L 45.332031 48 L 45.332031 58.667969 C 45.332031 59.402344 45.929688 60 46.667969 60 C 46.808594 60 46.953125 59.976562 47.089844 59.929688 L 48.765625 59.371094 C 50.582031 58.777344 52.542969 59.769531 53.136719 61.589844 C 53.734375 63.40625 52.742188 65.367188 50.921875 65.960938 C 50.21875 66.191406 49.464844 66.191406 48.765625 65.960938 L 47.085938 65.402344 C 46.390625 65.171875 45.632812 65.546875 45.402344 66.246094 Z M 77.332031 77.332031 L 48 77.332031 L 48 68.515625 C 51.230469 69.535156 54.675781 67.742188 55.695312 64.511719 C 56.710938 61.28125 54.917969 57.835938 51.6875 56.816406 C 50.488281 56.4375 49.199219 56.4375 48 56.816406 L 48 48 L 58.667969 48 C 59.402344 48 60 47.402344 60 46.664062 C 60 46.523438 59.976562 46.378906 59.929688 46.246094 L 59.371094 44.570312 C 58.777344 42.75 59.769531 40.792969 61.589844 40.195312 C 63.40625 39.601562 65.367188 40.59375 65.960938 42.414062 C 66.191406 43.113281 66.191406 43.867188 65.960938 44.570312 L 65.402344 46.246094 C 65.167969 46.945312 65.546875 47.699219 66.246094 47.933594 C 66.382812 47.976562 66.523438 48 66.667969 48 L 77.332031 48 Z M 77.332031 45.332031 L 68.515625 45.332031 C 69.535156 42.101562 67.742188 38.65625 64.511719 37.640625 C 61.28125 36.621094 57.835938 38.414062 56.816406 41.644531 C 56.4375 42.84375 56.4375 44.132812 56.816406 45.332031 L 48 45.332031 L 48 36.515625 C 49.851562 37.117188 51.878906 36.792969 53.453125 35.644531 C 56.210938 33.679688 56.851562 29.847656 54.882812 27.089844 C 53.332031 24.914062 50.542969 23.992188 48 24.816406 L 48 16 L 77.332031 16 Z M 77.332031 45.332031 "/>
<path style=" stroke:none;fill-rule:nonzero;fill:rgb(0%,0%,0%);fill-opacity:1;" d="M 38.355469 11.484375 C 37.15625 11.105469 35.867188 11.105469 34.667969 11.484375 L 34.667969 1.332031 C 34.667969 0.597656 34.070312 0 33.332031 0 L 1.332031 0 C 0.597656 0 0 0.597656 0 1.332031 L 0 33.332031 C 0 34.070312 0.597656 34.667969 1.332031 34.667969 L 11.484375 34.667969 C 10.464844 37.898438 12.257812 41.34375 15.488281 42.359375 C 18.71875 43.378906 22.164062 41.585938 23.183594 38.355469 C 23.5625 37.15625 23.5625 35.867188 23.183594 34.667969 L 33.332031 34.667969 C 34.070312 34.667969 34.667969 34.070312 34.667969 33.332031 L 34.667969 23.183594 C 37.898438 24.203125 41.34375 22.410156 42.359375 19.179688 C 43.378906 15.949219 41.585938 12.503906 38.355469 11.484375 Z M 37.585938 20.628906 C 36.886719 20.855469 36.132812 20.855469 35.429688 20.628906 L 33.753906 20.070312 C 33.054688 19.835938 32.300781 20.214844 32.066406 20.914062 C 32.023438 21.046875 32 21.191406 32 21.332031 L 32 32 L 21.332031 32 C 20.597656 32 20 32.597656 20 33.335938 C 20 33.476562 20.023438 33.621094 20.070312 33.753906 L 20.628906 35.429688 C 21.222656 37.25 20.230469 39.207031 18.410156 39.804688 C 16.59375 40.398438 14.632812 39.40625 14.039062 37.585938 C 13.808594 36.886719 13.808594 36.132812 14.039062 35.429688 L 14.597656 33.753906 C 14.828125 33.054688 14.453125 32.300781 13.753906 32.066406 C 13.617188 32.023438 13.476562 32 13.332031 32 L 2.667969 32 L 2.667969 2.667969 L 32 2.667969 L 32 13.332031 C 32 14.070312 32.597656 14.667969 33.335938 14.664062 C 33.476562 14.664062 33.621094 14.640625 33.753906 14.597656 L 35.429688 14.039062 C 37.25 13.441406 39.207031 14.433594 39.804688 16.253906 C 40.398438 18.074219 39.40625 20.03125 37.585938 20.628906 Z M 37.585938 20.628906 "/>
</g>
</svg>
